<svg xmlns="http://www.w3.org/2000/svg" width="99.929" height="100" viewBox="0 0 99.929 100">
  <g id="Raggruppa_9" data-name="Raggruppa 9" transform="translate(-23.999 -20.958)">
    <path id="Tracciato_30" data-name="Tracciato 30" d="M102.642,18.308,54.463,4.033a1.784,1.784,0,0,0-1.017,0L5.268,18.308A1.784,1.784,0,0,0,4,20.092V34.367a1.784,1.784,0,0,0,1.784,1.784h5.353V41.5a1.784,1.784,0,0,0,1.784,1.784v3.569a1.784,1.784,0,0,0,1.784,1.784v28.55a1.784,1.784,0,0,0-1.784,1.784v3.569a1.784,1.784,0,0,0-1.784,1.784v5.353H5.785A1.784,1.784,0,0,0,4,91.468v10.706a1.784,1.784,0,0,0,1.784,1.784h96.357a1.784,1.784,0,0,0,1.784-1.784V91.468a1.784,1.784,0,0,0-1.784-1.784H96.789V84.33A1.784,1.784,0,0,0,95,82.546V78.977a1.784,1.784,0,0,0-1.784-1.784V48.642A1.784,1.784,0,0,0,95,46.858V43.289A1.784,1.784,0,0,0,96.789,41.5V36.152h5.353a1.784,1.784,0,0,0,1.784-1.784V20.092A1.784,1.784,0,0,0,102.642,18.308ZM32.551,36.152V41.5a1.784,1.784,0,0,0,1.784,1.784v3.569a1.784,1.784,0,0,0,1.784,1.784v28.55a1.784,1.784,0,0,0-1.784,1.784v3.569a1.784,1.784,0,0,0-1.784,1.784v5.353H28.982V84.33A1.784,1.784,0,0,0,27.2,82.546V78.977a1.784,1.784,0,0,0-1.784-1.784V48.642A1.784,1.784,0,0,0,27.2,46.858V43.289A1.784,1.784,0,0,0,28.982,41.5V36.152Zm24.982,0V41.5a1.784,1.784,0,0,0,1.784,1.784v3.569A1.784,1.784,0,0,0,61.1,48.642v28.55a1.784,1.784,0,0,0-1.784,1.784v3.569a1.784,1.784,0,0,0-1.784,1.784v5.353H50.395V84.33a1.784,1.784,0,0,0-1.784-1.784V78.977a1.784,1.784,0,0,0-1.784-1.784V48.642a1.784,1.784,0,0,0,1.784-1.784V43.289A1.784,1.784,0,0,0,50.395,41.5V36.152Zm21.413,0V41.5a1.784,1.784,0,0,0,1.784,1.784v3.569a1.784,1.784,0,0,0,1.784,1.784v28.55a1.784,1.784,0,0,0-1.784,1.784v3.569a1.784,1.784,0,0,0-1.784,1.784v5.353H75.376V84.33a1.784,1.784,0,0,0-1.784-1.784V78.977a1.784,1.784,0,0,0-1.784-1.784V48.642a1.784,1.784,0,0,0,1.784-1.784V43.289A1.784,1.784,0,0,0,75.376,41.5V36.152Zm-8.922,8.922H62.886V43.289h7.138ZM64.67,48.642h3.569v28.55H64.67ZM62.886,80.761h7.138v1.784H62.886ZM61.1,86.115H71.808v3.569H61.1ZM71.808,39.72H61.1V36.152H71.808ZM45.042,45.074H37.9V43.289h7.138Zm-5.353,3.569h3.569v28.55H39.689ZM37.9,80.761h7.138v1.784H37.9ZM36.12,86.115H46.826v3.569H36.12ZM46.826,39.72H36.12V36.152H46.826Zm-21.413,0H14.707V36.152H25.413Zm-1.784,3.569v1.784H16.491V43.289Zm-5.353,5.353h3.569v28.55H18.276ZM16.491,80.761h7.138v1.784H16.491Zm-1.784,5.353H25.413v3.569H14.707Zm85.651,14.275H7.57V93.252h92.788ZM82.514,89.683V86.115H93.22v3.569ZM84.3,82.546V80.761h7.138v1.784Zm5.353-5.353H86.083V48.642h3.569Zm1.784-32.119H84.3V43.289h7.138ZM93.22,39.72H82.514V36.152H93.22Zm7.138-7.138H7.57V21.43L53.964,7.6l46.394,13.74Z" transform="translate(20 17)" fill="#173c79"/>
  </g>
</svg>
