<svg xmlns="http://www.w3.org/2000/svg" width="111.693" height="100" viewBox="0 0 111.693 100">
  <g id="Raggruppa_10" data-name="Raggruppa 10" transform="translate(-0.615 -4.11)">
    <path id="Tracciato_31" data-name="Tracciato 31" d="M112.308,27.6V23.264c0-.017-.017-.033-.017-.067a1.342,1.342,0,0,0-.1-.5c-.017-.033-.017-.084-.033-.117s-.017-.05-.033-.067l-7.511-14.7a6.751,6.751,0,0,0-6.039-3.7H14.349a6.751,6.751,0,0,0-6.039,3.7L.8,22.511c-.017.017-.017.033-.033.067s-.017.084-.033.117a1.342,1.342,0,0,0-.1.5c0,.033-.017.05-.017.067V27.6a9.4,9.4,0,0,0,6.875,9.05v53.7H7.239a6.232,6.232,0,0,0-6.223,6.223v5.872a1.667,1.667,0,0,0,1.673,1.673H110.25a1.678,1.678,0,0,0,1.673-1.673V96.566a6.236,6.236,0,0,0-6.24-6.223h-.251v-53.7A9.4,9.4,0,0,0,112.308,27.6ZM98.574,7.456a3.412,3.412,0,0,1,3.061,1.874l6.273,12.262H96.333l-3.58-9.8L91.164,7.456h7.41Zm-10.957,0,3.563,9.8,1.589,4.333H81.027L79.2,13.243,77.932,7.456Zm5.872,17.481V27.6a6.072,6.072,0,0,1-12.145,0v-2.66H93.489Zm-15.49,0V27.6a6.064,6.064,0,1,1-12.128,0v-2.66H78ZM74.5,7.456,77.6,21.591H65.754l-.636-8.849-.4-5.286H74.5ZM50.9,16.3l.652-8.849h9.819l.652,8.849.385,5.286H50.515Zm-.5,8.632H62.525V27.6a6.064,6.064,0,1,1-12.128,0Zm6.056,12.078A9.394,9.394,0,0,0,64.2,32.932a9.373,9.373,0,0,0,15.473,0,9.389,9.389,0,0,0,15.49,0,9.368,9.368,0,0,0,6.925,4.031V90.343H94.459V51.684a5.212,5.212,0,0,0-5.2-5.219H65.536a5.212,5.212,0,0,0-5.2,5.219V90.343h-49.5V36.964a9.368,9.368,0,0,0,6.925-4.031,9.389,9.389,0,0,0,15.49,0,9.373,9.373,0,0,0,15.473,0A9.386,9.386,0,0,0,56.453,37.014Zm34.66,14.67V90.293H63.68V51.684a1.867,1.867,0,0,1,1.857-1.874h23.72A1.867,1.867,0,0,1,91.114,51.684ZM19.434,27.6v-2.66H31.579V27.6a6.072,6.072,0,0,1-12.145,0Zm15.49,0v-2.66H47.052V27.6a6.064,6.064,0,1,1-12.128,0Zm3.5-20.141h9.786l-.4,5.286-.636,8.849H35.326Zm-3.429,0L33.72,13.243,31.9,21.591H20.153l.552-1.506,4.617-12.63h9.669Zm-23.7,1.874a3.412,3.412,0,0,1,3.061-1.874h7.411l-.552,1.506L16.59,21.591H5.014ZM3.961,27.6v-2.66H16.088V27.6a6.064,6.064,0,1,1-12.128,0ZM105.684,93.688a2.891,2.891,0,0,1,2.894,2.877v4.2H4.362v-4.2a2.877,2.877,0,0,1,2.877-2.877Zm-2.777-60.02A6.083,6.083,0,0,1,96.834,27.6v-2.66h12.128V27.6A6.079,6.079,0,0,1,102.907,33.668Z" transform="translate(0)" fill="#173c79"/>
    <path id="Tracciato_32" data-name="Tracciato 32" d="M11.345,31.258V42.752a2.781,2.781,0,0,0,2.778,2.778H29.317a2.781,2.781,0,0,0,2.777-2.778V31.258a2.781,2.781,0,0,0-2.777-2.778H14.123A2.781,2.781,0,0,0,11.345,31.258Zm18.75,0V42.752a.778.778,0,0,1-.777.778H14.123a.779.779,0,0,1-.778-.778V31.258a.779.779,0,0,1,.778-.778H29.317A.779.779,0,0,1,30.095,31.258ZM51.431,41.341a1,1,0,0,0-1,1v1.381a1,1,0,0,0,2,0V42.341A1,1,0,0,0,51.431,41.341Z" transform="translate(18.767 22.939)" fill="#173c79"/>
  </g>
</svg>
