<svg xmlns="http://www.w3.org/2000/svg" width="99.834" height="100" viewBox="0 0 99.834 100">
  <g id="Raggruppa_12" data-name="Raggruppa 12" transform="translate(-2.571 -2.5)">
    <path id="Tracciato_162" data-name="Tracciato 162" d="M68.569,2.5A33.76,33.76,0,0,0,41.22,56.012L31.881,65.35,29.732,63.2a1.89,1.89,0,0,0-2.631,0L5.607,84.732A10.416,10.416,0,1,0,20.43,99.37L37,82.8A1.834,1.834,0,1,0,34.4,80.211L17.54,96.776a6.682,6.682,0,0,1-9.45-9.45l20.234-20.2,2.149,2.186,5.077,5.077,3.483,3.483a1.86,1.86,0,1,0,2.631-2.631L39.515,73.1l6.411-6.411a1.89,1.89,0,0,0,0-2.631,1.853,1.853,0,0,0-2.631,0l-6.411,6.411L34.4,67.982,43.48,58.9A33.8,33.8,0,1,0,68.569,2.5Zm0,63.925A30.128,30.128,0,1,1,98.66,36.334,30.128,30.128,0,0,1,68.569,66.425Z" transform="translate(0 0)" fill="#173c79"/>
    <path id="Tracciato_163" data-name="Tracciato 163" d="M27.167,5.094A24.46,24.46,0,0,0,13.679,19.665,1.747,1.747,0,0,0,14.8,21.9h.524A1.747,1.747,0,0,0,17,20.713a20.966,20.966,0,0,1,11.531-12.3A1.747,1.747,0,1,0,27.167,5.2Z" transform="translate(30.275 6.317)" fill="#0d1935"/>
  </g>
</svg>
