<svg xmlns="http://www.w3.org/2000/svg" viewBox="0 0 39.8 32"><defs><style>.cls-1{fill:#6e7174;}</style></defs><g id="Livello_2" data-name="Livello 2"><g id="Livello_1-2" data-name="Livello 1"><path class="cls-1" d="M31.09,1.88C24.6,1.27,20.82,4.33,18.25,9.35a96.91,96.91,0,0,1-4.52,8.71c-3.09,4.73-8.62,6-13.73,3.3,5.46.41,8.42-2.68,10.73-6.6,1.84-3.12,3.34-6.44,5.22-9.53C19.23-.14,25.35-1.59,31.09,1.88Z"/><path class="cls-1" d="M39.8,11.13c-7-.64-10.67,3.06-13.32,8.37a72.36,72.36,0,0,1-4,7.8A9.82,9.82,0,0,1,9.87,31.07a4.86,4.86,0,0,1,.93-.36,10.51,10.51,0,0,0,7.84-5.36c1.51-2.42,2.59-5.1,4.11-7.51a33.28,33.28,0,0,1,4.88-6.44C30.74,8.43,35.73,8.4,39.8,11.13Z"/><path class="cls-1" d="M4.78,26.39c5.46-.19,8.6-3.48,10.87-8,1.32-2.6,2.54-5.27,4-7.79,3.11-5.3,8.59-7.16,14-4.9.29.12.55.31,1.39.79-6.8-.4-10.31,3.22-12.87,8.24-1.35,2.66-2.62,5.39-4.18,7.93C15.12,27.34,10,28.79,4.78,26.39Z"/></g></g></svg>